<?xml version="1.0" encoding="UTF-8" standalone="no"?>
<!-- Created with Inkscape (http://www.inkscape.org/) -->

<svg width="210mm" height="297mm" viewBox="0 0 210 297" version="1.1" id="svg1" xml:space="preserve" inkscape:version="1.3.2 (091e20e, 2023-11-25)" sodipodi:docname="Hermes_Logo.svg" xmlns:inkscape="http://www.inkscape.org/namespaces/inkscape" xmlns:sodipodi="http://sodipodi.sourceforge.net/DTD/sodipodi-0.dtd" xmlns="http://www.w3.org/2000/svg" xmlns:svg="http://www.w3.org/2000/svg"><sodipodi:namedview id="namedview1" pagecolor="#ffffff" bordercolor="#000000" borderopacity="0.25" inkscape:showpageshadow="2" inkscape:pageopacity="0.0" inkscape:pagecheckerboard="0" inkscape:deskcolor="#d1d1d1" inkscape:document-units="mm" inkscape:zoom="0.78751403" inkscape:cx="398.72306" inkscape:cy="525.70492" inkscape:window-width="1392" inkscape:window-height="1027" inkscape:window-x="276" inkscape:window-y="69" inkscape:window-maximized="0" inkscape:current-layer="layer1" /><defs id="defs1" /><g inkscape:label="Layer 1" inkscape:groupmode="layer" id="layer1"><path id="path1" style="fill:#000000" d="m 69.411267,52.473283 c -17.1712,-0.04951 -31.219457,0.01002 -31.218249,0.132292 0.0012,0.122267 0.810969,1.830075 1.79989,3.7946 2.04602,4.064488 3.998256,6.855433 5.73505,8.200533 0.656767,0.508644 1.193726,1.013388 1.193726,1.121379 0,0.107988 -0.489625,0.505734 -1.088306,0.883667 -2.638055,1.665331 -5.003603,4.642064 -6.104537,7.682735 -0.705438,1.948353 -0.945727,5.921127 -0.484725,8.013981 0.597762,2.713692 1.952629,5.215539 3.811137,7.037813 2.531311,2.481964 6.779105,4.366142 9.843327,4.366142 1.102997,0 1.103085,2.3e-5 1.244368,12.369275 0.07771,6.80307 0.121896,28.04477 0.09819,47.20383 -0.0431,34.83468 -0.04345,34.83499 -1.413351,36.1487 -2.004093,1.92189 -2.332,3.76679 -1.024743,5.76192 0.389665,0.59471 0.365549,0.63078 -0.820622,1.22318 -1.643003,0.82056 -2.592558,2.09741 -2.598291,3.49488 -0.0025,0.59765 0.09402,1.47371 0.21394,1.94665 0.218037,0.8599 0.217603,0.82348 -3.359485,0.8599 -3.846117,0.0392 -3.910787,-2.9e-4 -3.937365,5.54506 0.232376,5.71587 0.351961,5.74962 28.417764,5.83202 29.296652,0 29.212858,0 29.203108,-5.75469 -0.01,-5.75465 -0.0098,-5.75498 -3.536735,-5.70662 -3.210071,0.044 -3.511646,0.008 -3.351216,-0.39688 0.327527,-0.82721 0.461655,-2.13205 0.289388,-2.81843 -0.21947,-0.87444 -1.783176,-2.60744 -3.027723,-3.35535 -0.531637,-0.31949 -1.005498,-0.60885 -1.052648,-0.64286 -0.04715,-0.034 0.120042,-0.64112 0.371553,-1.34927 0.431112,-1.21382 0.43198,-1.34208 0.0078,-2.23604 -0.622068,-1.31091 -1.917267,-2.57071 -2.905249,-2.8267 -0.827755,-0.21446 -0.827891,-0.21477 -0.89607,-16.40365 -0.06818,-16.18887 -0.06807,-16.1508 16.271867,-16.18971 22.78267,-0.0542 24.61337,0.28996 24.56491,6.90501 -0.0292,3.98843 -0.11505,11.2581 -0.12919,16.1556 -0.0257,8.90452 -0.0256,8.90466 -1.1529,9.56531 -1.31624,0.77137 -2.31252,2.36207 -2.31252,3.69279 0,0.50812 0.18275,1.36045 0.40566,1.89395 0.41682,0.99758 0.33999,1.47587 -0.23668,1.47587 -0.57777,0 -2.50262,1.5807 -3.098,2.54404 -0.43745,0.70782 -0.54281,1.19579 -0.43977,2.0376 0.0745,0.6088 0.22117,1.31527 0.32557,1.56993 0.1753,0.42759 -0.086,0.46302 -3.41065,0.46302 -3.60018,0 -3.6003,3e-5 -3.6003,5.68854 0,5.68851 5.1e-4,5.58008 28.59309,5.68854 28.58056,0.10841 28.67407,0.24709 28.53369,-7.80521 0.0812,-3.70413 0.0811,-3.70453 -3.2551,-3.77858 -1.83489,-0.0407 -3.3355,-0.15978 -3.33468,-0.26458 8.1e-4,-0.10479 0.12377,-0.6313 0.27337,-1.16996 0.20841,-0.75036 0.18254,-1.19341 -0.11059,-1.89497 -0.50811,-1.21608 -2.26574,-2.94315 -3.41994,-3.36052 -0.92811,-0.33561 -0.92825,-0.33544 -0.40411,-1.04438 0.28828,-0.38991 0.58348,-1.17397 0.65577,-1.74201 0.10654,-0.83721 -0.0226,-1.27219 -0.6811,-2.29805 -0.44679,-0.69605 -1.19916,-1.49389 -1.67225,-1.77302 -0.86014,-0.50751 -0.86039,-0.50764 -0.81907,-47.41778 0.0227,-25.80057 0.0524,-47.215735 0.0661,-47.588825 0.0243,-0.663757 0.0592,-0.675726 1.62109,-0.562756 1.80492,0.13056 4.11973,-0.417186 6.19497,-1.466061 2.63757,-1.333104 5.82163,-5.075466 7.0776,-8.318355 0.358,-0.924326 0.59149,-2.289201 0.678,-3.962549 0.11002,-2.127992 0.0348,-2.875893 -0.45217,-4.497916 -0.32127,-1.070032 -1.05463,-2.672945 -1.62936,-3.562574 -1.27439,-1.972623 -4.3864,-5.032473 -5.3697,-5.279264 -0.71944,-0.180568 -0.71955,-0.180225 0.0336,-0.638204 1.41922,-0.863076 5.96259,-6.887523 7.05177,-9.350334 0.37194,-0.841024 0.91846,-1.869016 1.2144,-2.284615 0.29593,-0.415597 0.53795,-0.915743 0.53795,-1.11156 -1e-5,-0.296101 -5.27778,-0.362484 -31.35519,-0.393774 -17.71751,-0.02126 -31.41736,0.06327 -31.49834,0.194303 -0.24473,0.39598 3.49746,7.698095 4.76302,9.294007 0.65999,0.832259 1.78576,1.976091 2.50165,2.541963 1.30161,1.028861 1.30192,1.029147 -0.61546,2.36213 -1.99773,1.38883 -4.05658,3.792021 -4.94285,5.77019 -2.5316,5.650405 -1.24492,13.000746 2.9564,16.890442 2.5264,2.338994 6.01886,3.862814 8.85321,3.862814 1.36625,0 1.36626,7e-6 1.5198,4.564062 0.0844,2.510236 0.11018,7.296846 0.0574,10.637076 0.0116,5.72064 0.0442,5.75356 -24.10292,5.83324 -16.697591,0.0551 -16.697739,-4e-5 -16.668743,-10.45105 0.029,-10.451001 0.02895,-10.451465 2.013314,-10.618985 3.458089,-0.29193 6.165838,-1.628734 8.621179,-4.256588 1.729577,-1.851074 3.157602,-4.308909 3.711402,-6.388757 0.198837,-0.746753 0.362589,-2.446295 0.364319,-3.777031 0.004,-2.863597 -0.576405,-5.015231 -1.986959,-7.370092 -1.164797,-1.944581 -3.543638,-4.404587 -5.014165,-5.184697 -1.093354,-0.580023 -1.093489,-0.580185 0.144178,-1.737878 1.178277,-1.10214 4.130394,-5.254188 5.142321,-7.232634 0.26051,-0.50932 0.991468,-1.781343 1.624708,-2.826184 0.633236,-1.044841 1.151556,-1.937813 1.151346,-1.984375 -2.1e-4,-0.04656 -14.04963,-0.125157 -31.220829,-0.174666 z m -14.245642,3.997172 c 3.452189,-0.0065 8.069188,0.0026 14.225488,0.01447 13.543861,0.02611 24.625627,0.115697 24.625887,0.199471 2.7e-4,0.08377 -0.299519,0.434373 -0.666109,0.778764 -0.36659,0.344395 -1.033647,1.198458 -1.482597,1.898076 -0.816257,1.272026 -0.816233,1.271951 -22.550561,1.268139 -21.734334,-0.0038 -21.734664,-0.0038 -22.456511,-1.256771 -0.397014,-0.689125 -1.031008,-1.631261 -1.408699,-2.093929 -0.515037,-0.630908 -0.643464,-0.788811 9.713102,-0.808219 z m 86.741475,0.06201 c 13.67891,0 24.88989,0.07657 24.87083,0.165881 -0.38536,1.805205 -0.52252,1.895949 -2.86545,3.604431 -0.33315,0.242935 -5.20628,0.330729 -22.41104,0.330729 -22.0002,0 -21.38876,-0.475769 -22.30768,-1.026294 -1.25908,-0.75432 -2.15411,-2.166263 -2.15749,-3.060278 -2e-5,-0.0079 11.19192,-0.01447 24.87083,-0.01447 z m -63.896875,8.069791 c 1.952216,0 2.022969,0.109571 1.112594,1.719792 -0.408239,0.722068 -0.889937,1.15862 -1.516703,1.374076 -0.505257,0.173687 -1.008104,0.322515 -1.117245,0.330729 -0.109141,0.0082 -0.198437,-0.758923 -0.198437,-1.704805 0,-1.719786 5e-6,-1.719792 1.719791,-1.719792 z m -4.791438,0.05684 c 0.167586,0.05871 0.149974,0.459404 0.0217,1.690853 -0.104489,1.003134 -0.241969,1.913475 -0.305408,2.022616 -0.06344,0.10914 -0.584574,0.198437 -1.158069,0.198437 -1.042715,0 -1.04283,-6e-6 -1.04283,-1.852083 0,-1.852077 -6.2e-5,-1.852083 0.904337,-1.852083 0.497421,0 1.104241,-0.0769 1.348238,-0.170533 0.09985,-0.03831 0.176165,-0.05678 0.232028,-0.03721 z m 78.238123,0.03927 c 0.23226,0.03319 0.34093,0.123951 0.40204,0.283187 0.20171,0.525629 -0.75429,1.721586 -1.96836,2.462899 -0.9721,0.593568 -0.97188,0.593591 -1.05213,-0.889868 -0.0441,-0.815903 -0.0441,-1.513228 0,-1.549776 0.0441,-0.03655 0.70731,-0.146611 1.47381,-0.24443 0.55644,-0.07101 0.91235,-0.0952 1.14464,-0.06201 z m -85.93016,0.09767 c 0.204681,-0.01069 0.4774,0.0063 0.841292,0.02894 1.455566,0.09063 1.455725,0.09063 1.455725,1.914612 0,1.82398 2.03e-4,1.823764 -1.597318,1.779736 -1.249914,-0.03445 -1.56656,-0.124269 -1.455209,-0.414445 0.07828,-0.203982 0.141792,-1.045847 0.141594,-1.870687 -2.71e-4,-1.124782 -1.35e-4,-1.406092 0.613916,-1.438155 z m 71.94858,0.06253 c 0.10914,0.0045 0.67469,0.0083 1.25677,0.0083 1.05834,0 1.05833,6e-6 1.05833,1.852083 0,1.852077 -1.8e-4,1.852083 -1.1746,1.852083 -1.17419,0 -1.17428,-5.97e-4 -1.34514,-1.139982 -0.19387,-1.292837 -0.0911,-2.584713 0.20464,-2.572453 z m -77.192188,0.0083 c 1.190622,0 1.190625,-2.54e-4 1.190625,1.340486 0,1.266655 -0.0329,1.33109 -0.595312,1.163237 -0.327422,-0.09772 -0.863206,-0.346454 -1.190625,-0.552938 -0.399971,-0.252235 -0.595313,-0.63404 -0.595313,-1.163237 0,-0.75712 0.04615,-0.787548 1.190625,-0.787548 z m 71.966668,0 c 1.42645,0 1.45521,0.01503 1.45521,0.760677 0,0.418369 0.0744,1.132747 0.16536,1.5875 0.0909,0.454749 0.10624,0.826823 0.0336,0.826823 -0.0726,0 -0.68475,-0.308796 -1.36012,-0.686263 -1.23168,-0.688396 -1.74925,-1.302472 -1.74925,-2.074809 0,-0.325756 0.31093,-0.413928 1.45521,-0.413928 z m 12.15895,0 c 1.4673,0 1.46709,3e-6 1.46709,1.02526 0,0.56389 -0.0756,1.40308 -0.16795,1.865002 -0.16265,0.813258 -0.20665,0.837352 -1.38906,0.760678 -1.22109,-0.07919 -1.22091,-0.07908 -1.29915,-1.865003 -0.0782,-1.785931 -0.0782,-1.785937 1.38907,-1.785937 z m 13.01057,3.798734 c 3.25739,-0.150262 6.72511,1.399452 8.71368,4.006474 1.89138,2.479584 2.53479,5.156529 1.86655,7.764901 -1.12607,4.395573 -4.00954,7.492468 -8.07237,8.669755 -0.72492,0.21006 -2.03855,0.312968 -3.24115,0.254248 -1.5776,-0.077 -2.39865,-0.278046 -3.73259,-0.914673 -2.10108,-1.002757 -3.65918,-2.634224 -4.78523,-5.011064 -0.7575,-1.598904 -0.83716,-2.007355 -0.83716,-4.285009 0,-2.331177 0.0672,-2.653831 0.90537,-4.357874 1.54957,-3.150264 4.27799,-5.23258 7.80469,-5.956226 0.45184,-0.09271 0.91287,-0.149066 1.37821,-0.170532 z m -71.946511,0.0057 c 3.537918,-0.134538 6.768334,1.518585 8.714197,4.542875 1.341654,2.085229 1.81656,4.024531 1.57148,6.416662 -0.461867,4.508071 -3.243092,7.967676 -7.498767,9.328113 -1.740338,0.55634 -3.111136,0.624868 -5.073592,0.252698 -1.921259,-0.36436 -3.013491,-0.938046 -4.669483,-2.45153 -0.935098,-0.854623 -1.72732,-1.915168 -2.290816,-3.066996 -0.806113,-1.647762 -0.861276,-1.938906 -0.859896,-4.538741 0.0014,-2.662963 0.03941,-2.84801 0.913123,-4.46226 1.875246,-3.464668 4.172859,-5.219737 7.661548,-5.852356 0.515129,-0.09341 1.02679,-0.149246 1.532206,-0.168465 z m 39.105621,0.0093 c 3.4724,-0.117611 6.98243,1.476648 9.11159,4.236434 0.8786,1.138821 1.17985,1.828369 1.51464,3.470073 0.34745,1.703758 0.3653,2.365604 0.108,3.929476 -0.49178,2.989078 -1.49221,4.722227 -4.03438,6.990271 -0.37741,0.336717 -1.38476,0.899522 -2.23862,1.250569 -1.22056,0.50183 -2.03853,0.639465 -3.82561,0.644405 -1.25018,0.004 -2.82969,-0.161009 -3.51038,-0.365869 -1.79483,-0.540157 -3.73197,-1.877007 -4.77128,-3.292822 -0.49833,-0.678861 -1.16733,-2.007159 -1.48673,-2.951758 -0.46874,-1.386255 -0.56031,-2.151864 -0.47491,-3.970817 0.0856,-1.824144 0.26192,-2.586486 0.92397,-4.001306 1.51325,-3.233728 3.95992,-5.197996 7.20215,-5.781559 0.49039,-0.08827 0.98551,-0.140295 1.48156,-0.157097 z m -71.439048,0.09974 c 3.306676,0.0081 6.206873,1.293115 8.400521,3.72122 1.211812,1.34133 1.645054,2.189442 2.018481,3.953764 0.404144,1.909431 0.372928,3.354087 -0.113171,5.220353 -0.600408,2.305121 -1.415467,3.803978 -2.8236,5.192964 -0.927235,0.91464 -1.745491,1.408316 -3.175,1.915646 -1.667495,0.591777 -2.24541,0.668645 -4.307231,0.572575 -1.309684,-0.061 -2.911878,-0.301545 -3.560506,-0.534335 -2.036004,-0.730707 -3.640933,-1.949371 -4.745447,-3.603397 -1.534908,-2.298545 -1.969818,-3.837009 -1.81591,-6.426481 0.215363,-3.623456 1.473868,-6.226373 3.859713,-7.982459 1.948044,-1.433845 3.805193,-2.03587 6.26215,-2.02985 z m 13.804325,3.513997 c 0.599744,-0.01093 1.426856,-0.0048 2.336809,0.02067 2.82203,0.07887 3.283233,0.150899 3.132625,0.489376 -0.09713,0.218278 -0.412291,1.081487 -0.700216,1.918229 -0.523497,1.521348 -0.523757,1.521354 -2.347143,1.521354 -1.506463,0 -1.84774,-0.08048 -1.964221,-0.463021 -0.07754,-0.254661 -0.431029,-1.091079 -0.785482,-1.858284 -0.354453,-0.767209 -0.644405,-1.463688 -0.644405,-1.54771 0,-0.04201 0.372292,-0.06969 0.972033,-0.08061 z m 72.110323,0.0987 c 0.79536,0.0077 2.09796,0.04286 4.20905,0.108521 1.22385,0.03807 1.22385,0.03783 0.66146,1.887223 -0.5624,1.849397 -0.56227,1.849403 -2.74505,1.852083 -2.18281,0.0027 -2.18273,0.0031 -2.18592,-0.724503 -0.002,-0.400182 -0.29118,-1.231985 -0.64337,-1.847949 -0.35219,-0.615966 -0.55921,-1.164401 -0.45992,-1.219047 0.0806,-0.04437 0.36842,-0.06406 1.16375,-0.05633 z m 18.72806,0.02377 c -2.18384,0.01173 -3.49658,0.466059 -4.83846,1.675867 -1.41646,1.277026 -2.0278,2.685557 -2.03502,4.688603 -0.0105,2.898187 2.06913,6.054564 4.41885,6.707084 1.86498,0.517904 3.55868,0.347397 5.32629,-0.535885 2.50203,-1.250274 3.74292,-3.224856 3.74292,-5.956225 0,-1.186528 -0.16488,-1.778925 -0.79375,-2.852539 -1.11521,-1.903904 -1.29159,-2.092004 -2.77812,-2.962093 -1.10272,-0.645441 -1.60917,-0.772512 -3.04271,-0.764812 z m -72.306697,0.05684 c -4.263554,0 -7.146068,3.021329 -6.729822,7.05435 0.430194,4.16817 4.032142,7.02616 7.890991,6.261117 1.222726,-0.242414 3.220292,-1.412216 3.911389,-2.290816 0.78029,-0.991965 1.617473,-3.400508 1.617473,-4.65243 0,-0.765108 -0.307962,-1.639115 -1.051099,-2.985347 -0.925397,-1.676402 -1.225528,-1.992331 -2.516125,-2.645317 -1.141181,-0.577383 -1.832646,-0.741557 -3.122807,-0.741557 z m 40.487447,0.106971 c -0.44312,-0.01379 -0.95489,0.009 -1.58491,0.05374 -2.68151,0.190339 -3.64649,0.681516 -5.0276,2.559534 -0.64408,0.875807 -0.8552,1.468872 -0.94,2.641182 -0.22308,3.084049 1.31477,6.120972 3.72897,7.363375 1.33853,0.688824 3.32464,0.958896 4.42351,0.601514 2.91763,-0.948899 5.29582,-4.054529 5.29115,-6.910173 -0.002,-1.324038 -1.36162,-4.035653 -2.42104,-4.829162 -1.42974,-1.070876 -2.1407,-1.438647 -3.47008,-1.480013 z m -72.577478,0.0098 c -0.528552,0.01726 -1.123604,0.06644 -1.657263,0.143144 -2.215372,0.318418 -3.476025,1.12893 -4.467945,2.873726 -0.871776,1.533465 -1.013206,3.033956 -0.474389,5.0245 1.096327,4.050157 4.552663,6.310715 8.120951,5.310787 3.266582,-0.915378 5.614931,-4.451012 5.125269,-7.716325 -0.354307,-2.362681 -3.037176,-5.145211 -5.387785,-5.587773 -0.268281,-0.05051 -0.730288,-0.06532 -1.258838,-0.04806 z m 0.164331,3.653524 c 0.594948,0 1.090472,0.256934 1.732711,0.89917 0.494768,0.494767 0.899686,1.161585 0.899686,1.481563 0,0.825087 -0.762524,2.32728 -1.423685,2.804997 -0.809195,0.584675 -2.431423,0.313168 -3.341915,-0.559139 -0.405929,-0.388904 -0.79889,-1.023024 -0.872815,-1.409733 -0.313984,-1.642493 1.157276,-3.216858 3.006018,-3.216858 z m 104.099077,0.04031 c 0.63758,0.03531 1.28479,0.290007 1.84381,0.78083 0.76405,0.670849 0.93534,1.005782 0.93534,1.831413 0,1.162267 -0.98138,2.541272 -1.92701,2.707329 -1.04815,0.184059 -2.15887,-0.12426 -2.88871,-0.802019 -0.93218,-0.865664 -1.15356,-1.916025 -0.62064,-2.94659 0.55829,-1.079599 1.59453,-1.629815 2.65721,-1.570963 z m -71.857117,0.0031 c 0.484657,0.06723 0.952503,0.323646 1.469677,0.77773 0.827044,0.726155 0.935344,0.968074 0.935344,2.092896 0,1.095555 -0.112769,1.36702 -0.813904,1.956986 -0.601762,0.506351 -1.113379,0.68523 -1.961121,0.68523 -0.955769,0 -1.260539,-0.135974 -1.831412,-0.814421 -0.486389,-0.578038 -0.68523,-1.119701 -0.68523,-1.869136 0,-1.330576 0.339263,-1.967241 1.317749,-2.473234 0.582982,-0.301472 1.084237,-0.423283 1.568897,-0.356051 z m 39.352117,0.01757 c 0.45559,-0.03156 0.90208,0.06021 1.28261,0.309542 1.6978,1.112437 1.84233,2.833751 0.36484,4.344954 -1.15244,1.178742 -2.34572,1.158972 -3.56361,-0.05891 -0.69685,-0.696844 -0.89969,-1.119151 -0.89969,-1.872754 0,-1.420182 1.4491,-2.628137 2.81585,-2.722832 z m -55.603322,3.907772 c 1.478334,0 1.686261,0.06551 1.890324,0.595312 0.204949,0.532101 -0.0035,104.305994 -0.207008,104.791284 -0.04577,0.10914 -0.672434,1.50507 -1.82801,1.50507 -2.101045,0 -2.100997,-6e-5 -2.122351,-17.13177 -0.01174,-9.42244 -0.07207,-28.7404 -0.133842,-42.92865 -0.100502,-23.08291 0.149042,-42.397891 0.590145,-45.706767 0.149902,-1.124476 0.149605,-1.124479 1.810742,-1.124479 z m 71.737222,0 c 1.91201,0 1.91203,9e-6 1.99833,2.182812 0.0475,1.200544 0.0515,25.191734 0.008,53.313544 -0.078,51.13058 -0.0781,51.13073 -2.31149,51.13073 -2.23337,0 -2.23357,-1.6e-4 -2.23759,-50.73386 h 5.2e-4 c -0.003,-37.832811 0.0767,-51.389834 0.31316,-53.313539 0.31708,-2.579678 0.31679,-2.579687 2.2288,-2.579687 z m 6.15156,9.413896 c 0.1163,-0.0719 0.73471,0.402716 1.3746,1.054716 0.71031,0.723757 1.56057,1.292309 2.18281,1.459859 0.74638,0.200978 0.97762,0.382291 0.86455,0.676961 -0.0849,0.2213 -0.15452,21.525904 -0.15452,47.343884 0,46.94175 5.1e-4,46.94235 -2.11615,46.94235 -1.16414,0 -2.12951,-0.0298 -2.14508,-0.0661 h -5.2e-4 c -0.1569,-0.36659 -0.16277,-97.31468 -0.006,-97.41163 z m -84.463058,0.640271 c 0.05241,0 0.09508,21.728999 0.09508,48.286459 0,48.28631 -9e-6,48.28599 -2.182812,48.28594 -2.182806,-5e-5 -2.182727,-1.7e-4 -2.161109,-43.45781 0.01189,-23.90171 0.04462,-45.005117 0.07286,-46.896881 0.05135,-3.439571 0.05141,-3.440022 1.11156,-3.928959 0.58308,-0.26892 1.489427,-0.894003 2.014347,-1.389063 0.524924,-0.495067 0.997663,-0.899686 1.050065,-0.899686 z m 13.062252,0.04289 c 0.155669,-0.0519 0.564368,0.185103 0.907955,0.526583 0.343591,0.34148 1.216821,0.97619 1.940967,1.41025 1.316631,0.789185 1.317094,0.789197 1.480013,2.513541 0.21677,2.294304 0.210944,46.645385 -0.0093,72.059685 -0.175818,20.28427 -0.175644,20.28455 -2.2071,20.28455 -2.031456,0 -2.031518,-1e-5 -2.20555,-5.75469 -0.09572,-3.16505 -0.177577,-24.92268 -0.181901,-48.35002 -0.0055,-30.01934 0.07545,-42.623409 0.274918,-42.689899 z m 57.843496,0.371037 c 0.55214,-0.004 0.58495,1.935987 0.71624,9.697082 0.22493,13.29716 0.22639,79.57681 0.002,83.47398 -0.17087,2.96535 -0.17055,2.96552 -1.91667,3.05717 -0.96039,0.0504 -1.92475,0.1147 -2.14303,0.14315 -0.35115,0.0458 -0.40895,-5.37104 -0.50074,-47.01109 h -5.2e-4 c -0.10374,-47.062672 -0.10338,-47.062977 0.85111,-47.377984 0.52496,-0.17325 1.53467,-0.836255 2.24379,-1.473812 0.32233,-0.289802 0.56372,-0.507172 0.74776,-0.508496 z m -24.70288,27.646892 c 16.4662,0.0421 16.46633,0.0423 16.37833,1.71721 -0.088,1.67489 -0.0883,1.67458 -20.28662,1.62471 -20.198335,-0.0499 -20.198024,-0.0501 -20.284552,-1.53583 -0.08653,-1.48577 -0.08672,-1.48574 3.819922,-1.66708 2.148655,-0.0997 11.3165,-0.16216 20.37292,-0.13901 z m 9.16688,6.63112 c 3.76476,0.01 6.34353,0.0364 6.5319,0.0837 0.58337,0.14641 0.6351,0.29052 0.6351,1.76836 0,1.60904 2e-4,1.60908 -20.21943,1.52136 -20.219629,-0.0877 -20.220008,-0.088 -20.320211,-1.54823 -0.05511,-0.80312 -0.05461,-1.51939 10e-4,-1.59215 0.11041,-0.14437 22.077341,-0.26277 33.371611,-0.23306 z m -24.878069,6.65903 c 2.85421,-0.0155 6.661639,-0.006 11.738299,0.006 20.30669,0.0497 20.30675,0.0501 20.30677,1.55132 3e-5,1.50129 -5e-5,1.50125 -18.98385,1.38028 -10.441081,-0.0665 -19.538584,-0.11694 -20.216337,-0.11214 -1.232281,0.009 -1.232284,0.009 -1.322917,-1.4304 -0.06797,-1.07904 -0.0846,-1.34877 8.478035,-1.39526 z m 0.102836,6.31744 c 2.846308,-0.0148 6.641503,-8.9e-4 11.701613,0.0171 20.2404,0.0718 20.24046,0.0714 20.24062,1.45883 1.7e-4,1.38741 -6e-5,1.3878 -20.17448,1.45727 -11.095913,0.0382 -20.20424,0.0984 -20.24062,0.13385 -0.03638,0.0354 -0.06615,-0.65237 -0.06615,-1.52859 0,-1.19486 9.6e-5,-1.49401 8.539013,-1.53841 z m 8.593273,6.37274 c 9.42227,-0.0362 18.5005,0.0234 20.17396,0.13229 3.0427,0.19802 3.04253,0.19836 3.12281,1.30069 0.0638,0.87611 -0.0141,1.12048 -0.37982,1.19063 -0.2531,0.0486 -9.3676,0.11507 -20.25458,0.14831 -19.794516,0.0604 -19.794436,0.0604 -19.794139,-1.32292 2.97e-4,-1.38332 3.48e-4,-1.38327 17.131769,-1.449 z m 22.41982,5.92935 c 0.73793,-0.0397 0.80103,0.0317 0.94258,1.07177 0.15169,1.11458 0.15184,1.11455 -1.98127,1.19269 -4.57067,0.16743 -38.393472,-0.10017 -38.600233,-0.30541 -0.120517,-0.11963 -0.180048,-0.54257 -0.132291,-0.93999 0.08683,-0.72258 0.08687,-0.72255 19.533694,-0.84956 10.69575,-0.0699 19.80256,-0.1461 20.23752,-0.1695 z m -47.488573,40.84092 c 5.486247,-0.003 5.67678,0.16281 6.43785,0.82786 1.007889,0.6922 1.197682,1.9421 0.07545,2.61999 -0.311845,0.13106 -6.529361,0.20278 -13.98881,0.16175 -12.938372,-0.0712 -13.44118,-0.0924 -13.815695,-0.58756 -0.57768,-0.76378 -0.487342,-1.53572 0.262517,-2.24018 0.668171,-0.62771 0.668211,-0.62762 13.559896,-0.73432 3.222919,-0.0267 5.640046,-0.0464 7.468794,-0.0475 z m 70.754333,0.007 c 5.3872,-0.0262 5.54633,0.10757 6.18309,0.64337 0.96222,0.80966 1.02452,1.1481 0.4253,2.30683 -0.42364,0.81922 -0.42371,0.81912 -13.93972,0.67645 -12.60929,-0.13311 -13.53927,-0.17481 -13.86375,-0.61857 -0.53018,-0.72506 -0.42187,-1.26274 0.41547,-2.06499 0.76317,-0.73116 0.76317,-0.73079 13.43846,-0.8723 3.16883,-0.0354 5.54544,-0.0621 7.34115,-0.0708 z m 1.60249,7.45122 c 6.66126,-0.004 6.87512,0.12189 7.72976,0.6227 0.62674,0.3673 1.13947,0.84903 1.13947,1.07074 0,0.49483 -0.50545,1.48614 -0.89969,1.76475 -0.16011,0.11316 -7.72826,0.18206 -16.81809,0.15348 -16.52697,-0.052 -16.52657,-0.0516 -17.14159,-0.66663 -0.69257,-0.69256 -0.58549,-1.1041 0.56999,-2.18488 0.68418,-0.63995 0.68429,-0.63958 16.34732,-0.72243 3.91577,-0.0207 6.85241,-0.0365 9.07283,-0.0377 z m -69.935265,0.11576 c 6.626675,0.0236 6.81328,0.21062 7.560262,0.95756 0.967472,0.96739 0.984196,1.01661 0.589628,1.71979 -0.406193,0.7239 -0.405899,0.72403 -11.37605,0.87644 -6.033583,0.0838 -11.744299,0.11413 -12.690181,0.0677 -0.945882,-0.0464 -3.651585,-0.0852 -6.012553,-0.0863 -4.292672,-0.002 -4.29257,-0.002 -4.715475,-0.81959 -0.39409,-0.76209 -0.38991,-0.85387 0.05891,-1.34978 1.186694,-1.31129 0.921452,-1.29088 17.552933,-1.34928 3.899253,-0.0137 6.823632,-0.0244 9.032524,-0.0165 z m 4.655013,7.73648 c 9.9927,0.0618 10.007365,0.41507 10.065535,1.82986 0.0776,1.88635 0.07753,1.88648 -23.8125,1.82934 -23.889982,-0.0572 -23.561647,-0.0707 -23.797513,-1.77663 -0.382583,-2.76715 4.386377,-1.49913 23.854874,-1.87586 5.918359,-0.11452 10.358703,-0.0273 13.689604,-0.007 z m 80.663812,1.71033 c -0.0214,2.28699 -2.94572,1.77865 -24.37371,1.95078 -23.54713,0.18915 -23.54791,-0.059 -23.54791,-1.7787 0,-1.71979 5e-5,-1.97882 23.6802,-1.85209 22.47164,0.12026 24.25713,-0.002 24.24142,1.68001 z" sodipodi:nodetypes="ssssssssssssssscsscccscsssssssssssssssssssscsssssssssscssssssscsssssssscssccssssscsssssssssssssssssssssssssssssssscssssssscsssssssssssssssssssssssscsssssssscssssssssssssssssssssssssssssscsssccsssssssscsssssssssssssssssscssssscsssssssssssssssssssscsssssssssssssssssssssssssssssssssssssssssssscsssccscccscssssscccssssssssssssssscssscssccssssssscsssssssssssccssscsscsscssscscssssscssssssssssssssssssssssssssssssssccssssssssssssssssssssccscscscssccsssss" /></g></svg>
